# xmcd CD database file
#
# Track frame offsets:
#	150
#	2151
#	30061
#	34675
#	62631
#	64072
#	91033
#	105172
#	128054
#	150905
#	180271
#	184254
#	201169
#	202622
#	209482
#	227570
#	242574
#	254357
#
# Disc length: 3412 seconds
#
# Revision: 1
# Processed by: cddbd v1.5.1PL0 Copyright (c) Steve Scherf et al.
# Submitted via: CDex 1.51
#
DISCID=d00d5212
DTITLE=Phil de Gruy - Just Duet
DYEAR=2004
DGENRE=Jazz
TTITLE0=Looney Tunes
TTITLE1=Lenny's From Heaven (feat. Larry Coryell)
TTITLE2=Opening Arguments (feat. Tronzo)
TTITLE3=Swedish Pastry (feat. Mike Stern)
TTITLE4=Out-sourcing (feat. Tronzo)
TTITLE5=Softly, As In A Morning Sunrise (feat. Hank Mackie)
TTITLE6=King of the Road (feat. Tronzo)
TTITLE7=When I Fall In Sequence (feat. Reeves Gabrels)
TTITLE8=In a Semi-Mental (Monk's) Mood (feat. Tronzo)
TTITLE9=Barbara (feat. Steve Masakowski)
TTITLE10=Nitrate Train (feat. Tronzo)
TTITLE11=The Nun With the Dirty Habit (feat. Charlie Hunter)
TTITLE12=Harmonic Circumcision With Chrome-atic Nippers (feat. Tronzo)
TTITLE13=How Incensed! (feat. Mike Stern)
TTITLE14=Pardon Our Progress-Expect Delays (feat. Reeves Gabrels)
TTITLE15=The Lithiumless Train Conductor (Can't Get Off) (feat. Tronzo)
TTITLE16=Ugly Beauty (feat. Charlie Hunter)
TTITLE17=Black Hole Blues (feat. Tronzo)
EXTD=YEAR: 2004
EXTT0=
EXTT1=
EXTT2=
EXTT3=
EXTT4=
EXTT5=
EXTT6=
EXTT7=
EXTT8=
EXTT9=
EXTT10=
EXTT11=
EXTT12=
EXTT13=
EXTT14=
EXTT15=
EXTT16=
EXTT17=
PLAYORDER=
